<?xml version="1.0" standalone="no"?>
<!DOCTYPE svg PUBLIC "-//W3C//DTD SVG 20010904//EN"
 "http://www.w3.org/TR/2001/REC-SVG-20010904/DTD/svg10.dtd">
<svg version="1.0" xmlns="http://www.w3.org/2000/svg"
 width="655.000000pt" height="399.000000pt" viewBox="0 0 655.000000 399.000000"
 preserveAspectRatio="xMidYMid meet">

<g transform="translate(0.000000,399.000000) scale(0.100000,-0.100000)"
fill="#000000" stroke="none">
<path d="M0 1995 l0 -1995 3275 0 3275 0 0 1995 0 1995 -3275 0 -3275 0 0
-1995z m3591 1222 c86 -41 116 -76 125 -144 8 -73 -10 -76 -366 -77 l-265 -1
-5 -85 c-6 -108 -25 -147 -149 -310 -94 -124 -171 -244 -171 -267 0 -22 35
-23 105 -3 85 24 207 26 290 5 66 -18 85 -30 85 -55 0 -37 -25 -44 -95 -26
-82 20 -186 21 -256 0 -74 -22 -196 -84 -296 -150 -46 -31 -91 -54 -101 -52
-30 6 -39 157 -19 300 30 206 111 384 251 552 124 148 354 279 580 331 94 22
221 14 287 -18z m493 -472 c11 -91 -7 -258 -40 -372 -65 -225 -222 -443 -415
-574 -131 -89 -373 -170 -509 -170 -160 -1 -268 65 -278 170 -7 77 -13 76 322
78 160 1 294 2 298 2 3 1 5 34 5 74 -2 95 27 157 161 337 135 181 169 237 155
258 -13 20 -16 20 -117 -7 -100 -26 -180 -26 -276 2 -65 19 -75 25 -78 46 -6
41 20 51 86 34 71 -19 180 -21 252 -4 75 18 198 79 295 146 54 37 88 54 105
53 23 -3 26 -8 34 -73z"/>
</g>
</svg>
