<!DOCTYPE svg PUBLIC "-//W3C//DTD SVG 20010904//EN" "http://www.w3.org/TR/2001/REC-SVG-20010904/DTD/svg10.dtd">
<svg version="1.0" xmlns="http://www.w3.org/2000/svg" width="140px" height="140px" viewBox="0 0 1400 1400" preserveAspectRatio="xMidYMid meet">
<g id="layer101" fill="#5adad2" stroke="none">
 <path d="M534 1076 c-54 -24 -81 -85 -52 -114 8 -8 56 -12 151 -12 133 0 138 -1 132 -20 -8 -26 24 -98 77 -168 59 -77 80 -112 69 -112 -5 0 -32 5 -59 12 -82 18 -188 -21 -151 -57 11 -10 24 -11 66 -2 65 14 128 -4 223 -63 44 -27 68 -36 75 -29 15 15 12 145 -4 204 -21 73 -63 154 -109 206 -112 126 -313 200 -418 155z"/>
 <path d="M302 873 c-4 -10 -6 -49 -6 -88 5 -218 168 -417 387 -471 86 -22 150 -13 189 26 29 29 39 82 17 96 -6 3 -74 6 -151 6 -123 -1 -139 1 -134 15 12 31 -15 92 -79 178 -72 96 -81 121 -39 105 34 -13 123 -13 163 1 19 7 31 18 31 29 0 27 -12 31 -68 20 -67 -12 -130 4 -219 58 -38 23 -72 42 -76 42 -4 0 -11 -8 -15 -17z"/>
 </g>

</svg>